<svg width="55" height="39" viewBox="0 0 55 39" fill="none" xmlns="http://www.w3.org/2000/svg">
<path d="M8.25 16.5C11.2836 16.5 13.75 14.0336 13.75 11C13.75 7.96641 11.2836 5.5 8.25 5.5C5.21641 5.5 2.75 7.96641 2.75 11C2.75 14.0336 5.21641 16.5 8.25 16.5ZM46.75 16.5C49.7836 16.5 52.25 14.0336 52.25 11C52.25 7.96641 49.7836 5.5 46.75 5.5C43.7164 5.5 41.25 7.96641 41.25 11C41.25 14.0336 43.7164 16.5 46.75 16.5ZM49.5 19.25H44C42.4875 19.25 41.1211 19.8602 40.1242 20.8484C43.5875 22.7477 46.0453 26.1766 46.5781 30.25H52.25C53.7711 30.25 55 29.0211 55 27.5V24.75C55 21.7164 52.5336 19.25 49.5 19.25ZM27.5 19.25C32.8195 19.25 37.125 14.9445 37.125 9.625C37.125 4.30547 32.8195 0 27.5 0C22.1805 0 17.875 4.30547 17.875 9.625C17.875 14.9445 22.1805 19.25 27.5 19.25ZM34.1 22H33.3867C31.5992 22.8594 29.6141 23.375 27.5 23.375C25.3859 23.375 23.4094 22.8594 21.6133 22H20.9C15.4344 22 11 26.4344 11 31.9V34.375C11 36.6523 12.8477 38.5 15.125 38.5H39.875C42.1523 38.5 44 36.6523 44 34.375V31.9C44 26.4344 39.5656 22 34.1 22ZM14.8758 20.8484C13.8789 19.8602 12.5125 19.25 11 19.25H5.5C2.46641 19.25 0 21.7164 0 24.75V27.5C0 29.0211 1.22891 30.25 2.75 30.25H8.41328C8.95469 26.1766 11.4125 22.7477 14.8758 20.8484Z" fill="white"/>
</svg>
